<svg width="300" height="300" viewBox="0 0 300 300" fill="none" xmlns="http://www.w3.org/2000/svg">
<g filter="url(#filter0_i_529_10170)">
<path d="M82.5 266.913C78.3579 274.088 69.1305 276.605 62.4054 271.767C39.834 255.531 22.1336 233.272 11.4181 207.402C-1.21818 176.896 -3.43511 143.072 5.11114 111.177C13.6574 79.2821 32.4892 51.0984 58.6858 30.997C84.8824 10.8956 116.98 -1.00993e-05 150 -6.55671e-06C183.02 -3.01416e-06 215.118 10.8956 241.314 30.997C267.511 51.0984 286.343 79.2821 294.889 111.177C303.435 143.072 301.218 176.896 288.582 207.403C277.866 233.272 260.166 255.531 237.595 271.767C230.869 276.605 221.642 274.088 217.5 266.913C213.358 259.739 215.887 250.636 222.489 245.632C239.396 232.816 252.679 215.687 260.866 195.922C270.975 171.517 272.748 144.458 265.911 118.942C259.074 93.4257 244.009 70.8787 223.051 54.7976C202.094 38.7165 176.416 30 150 30C123.584 30 97.906 38.7165 76.9486 54.7976C55.9913 70.8787 40.9259 93.4257 34.0889 118.942C27.2519 144.458 29.0255 171.517 39.1345 195.922C47.3213 215.687 60.6045 232.816 77.5112 245.632C84.1132 250.636 86.6421 259.739 82.5 266.913Z" fill="#EEEEEE"/>
</g>
<path d="M82.5 266.913C78.3579 274.088 69.1307 276.605 62.4057 271.767C45.1643 259.365 30.7049 243.406 20.0419 224.906C6.87476 202.062 -0.0380436 176.15 0.000164038 149.783C0.0383717 123.415 7.02624 97.5239 20.2595 74.7178C33.4928 51.9117 52.5039 32.9968 75.3768 19.8794C98.2497 6.76194 124.176 -0.0945353 150.543 0.000977576C176.911 0.0964905 202.787 7.14061 225.564 20.4234C248.341 33.7062 267.215 52.7584 280.283 75.6597C290.865 94.2057 297.337 114.745 299.335 135.89C300.114 144.138 293.282 150.83 284.998 150.782C276.714 150.734 270.134 143.955 269.148 135.729C267.249 119.867 262.193 104.491 254.226 90.5278C243.772 72.2067 228.673 56.965 210.451 46.3387C192.229 35.7125 171.528 30.0772 150.435 30.0008C129.341 29.9244 108.6 35.4095 90.3014 45.9035C72.0031 56.3975 56.7942 71.5294 46.2076 89.7743C35.621 108.019 30.0307 128.732 30.0001 149.826C29.9696 170.92 35.4998 191.649 46.0335 209.925C54.0616 223.853 64.7797 235.981 77.5113 245.632C84.1133 250.636 86.6421 259.739 82.5 266.913Z" fill="#59BCB1"/>
<mask id="path-3-inside-1_529_10170" fill="white">
<path d="M122 272C122 256.536 134.536 244 150 244C165.464 244 178 256.536 178 272C178 287.464 165.464 300 150 300C134.536 300 122 287.464 122 272Z"/>
</mask>
<path d="M150 298C135.641 298 124 286.359 124 272H120C120 288.569 133.431 302 150 302V298ZM176 272C176 286.359 164.359 298 150 298V302C166.569 302 180 288.569 180 272H176ZM150 246C164.359 246 176 257.641 176 272H180C180 255.431 166.569 242 150 242V246ZM150 242C133.431 242 120 255.431 120 272H124C124 257.641 135.641 246 150 246V242Z" fill="#59BCB1" mask="url(#path-3-inside-1_529_10170)"/>
<path d="M158.945 264.222V279.778C158.945 280.19 158.781 280.586 158.489 280.878C158.197 281.169 157.802 281.333 157.389 281.333H153.5C153.088 281.333 152.692 281.169 152.4 280.878C152.108 280.586 151.945 280.19 151.945 279.778V264.222C151.945 263.81 152.108 263.414 152.4 263.122C152.692 262.831 153.088 262.667 153.5 262.667H157.389C157.802 262.667 158.197 262.831 158.489 263.122C158.781 263.414 158.945 263.81 158.945 264.222ZM147.278 262.667H143.389C142.976 262.667 142.581 262.831 142.289 263.122C141.997 263.414 141.833 263.81 141.833 264.222V279.778C141.833 280.19 141.997 280.586 142.289 280.878C142.581 281.169 142.976 281.333 143.389 281.333H147.278C147.69 281.333 148.086 281.169 148.378 280.878C148.67 280.586 148.833 280.19 148.833 279.778V264.222C148.833 263.81 148.67 263.414 148.378 263.122C148.086 262.831 147.69 262.667 147.278 262.667Z" fill="#59BCB1"/>
<path d="M220.702 220.72C238.803 202.623 250 177.619 250 150C250 94.7715 205.228 50 150 50C94.7715 50 50 94.7715 50 150C50 177.615 61.1933 202.615 79.2904 220.712" stroke="#BDBDBD" stroke-width="6" stroke-linejoin="round" stroke-dasharray="2 32"/>
<path d="M132.832 100.234C132.16 100.234 131.509 100.129 130.879 99.919C130.255 99.709 129.709 99.409 129.241 99.019C128.773 98.629 128.443 98.164 128.251 97.624L129.43 97.183C129.562 97.555 129.802 97.876 130.15 98.146C130.504 98.41 130.915 98.614 131.383 98.758C131.857 98.902 132.34 98.974 132.832 98.974C133.408 98.974 133.945 98.878 134.443 98.686C134.941 98.494 135.343 98.227 135.649 97.885C135.955 97.537 136.108 97.129 136.108 96.661C136.108 96.187 135.949 95.797 135.631 95.491C135.313 95.185 134.902 94.945 134.398 94.771C133.9 94.591 133.378 94.453 132.832 94.357C131.974 94.207 131.203 94.003 130.519 93.745C129.841 93.487 129.304 93.124 128.908 92.656C128.512 92.182 128.314 91.558 128.314 90.784C128.314 90.058 128.524 89.428 128.944 88.894C129.364 88.36 129.916 87.946 130.6 87.652C131.29 87.358 132.034 87.211 132.832 87.211C133.486 87.211 134.125 87.313 134.749 87.517C135.373 87.721 135.922 88.018 136.396 88.408C136.876 88.798 137.221 89.275 137.431 89.839L136.234 90.271C136.102 89.893 135.859 89.572 135.505 89.308C135.157 89.038 134.749 88.834 134.281 88.696C133.813 88.552 133.33 88.48 132.832 88.48C132.262 88.474 131.728 88.57 131.23 88.768C130.738 88.96 130.339 89.23 130.033 89.578C129.727 89.92 129.574 90.322 129.574 90.784C129.574 91.324 129.715 91.741 129.997 92.035C130.285 92.323 130.675 92.539 131.167 92.683C131.659 92.827 132.214 92.956 132.832 93.07C133.636 93.208 134.383 93.424 135.073 93.718C135.763 94.006 136.318 94.393 136.738 94.879C137.158 95.359 137.368 95.953 137.368 96.661C137.368 97.381 137.158 98.011 136.738 98.551C136.318 99.085 135.763 99.499 135.073 99.793C134.389 100.087 133.642 100.234 132.832 100.234ZM143.928 92.26H141.777L141.768 100H140.508L140.517 92.26H138.888V91H140.517L140.508 88.174H141.768L141.777 91H143.928V92.26ZM149.248 100.234C148.42 100.234 147.664 100.021 146.98 99.595C146.302 99.169 145.759 98.599 145.351 97.885C144.949 97.165 144.748 96.37 144.748 95.5C144.748 94.84 144.865 94.225 145.099 93.655C145.333 93.079 145.654 92.575 146.062 92.143C146.476 91.705 146.956 91.363 147.502 91.117C148.048 90.871 148.63 90.748 149.248 90.748C149.914 90.748 150.526 90.88 151.084 91.144C151.648 91.408 152.131 91.777 152.533 92.251C152.941 92.725 153.247 93.28 153.451 93.916C153.661 94.552 153.748 95.239 153.712 95.977H146.08C146.152 96.547 146.332 97.057 146.62 97.507C146.914 97.957 147.286 98.314 147.736 98.578C148.192 98.836 148.696 98.968 149.248 98.974C149.848 98.974 150.388 98.818 150.868 98.506C151.354 98.194 151.744 97.765 152.038 97.219L153.316 97.516C152.956 98.314 152.413 98.968 151.687 99.478C150.961 99.982 150.148 100.234 149.248 100.234ZM146.044 94.96H152.443C152.401 94.402 152.23 93.892 151.93 93.43C151.636 92.962 151.255 92.59 150.787 92.314C150.319 92.032 149.806 91.891 149.248 91.891C148.69 91.891 148.18 92.029 147.718 92.305C147.256 92.575 146.878 92.944 146.584 93.412C146.29 93.874 146.11 94.39 146.044 94.96ZM156.515 104.5H155.255V91H156.515V92.683C156.827 92.113 157.253 91.651 157.793 91.297C158.333 90.943 158.975 90.766 159.719 90.766C160.373 90.766 160.985 90.889 161.555 91.135C162.131 91.381 162.635 91.723 163.067 92.161C163.499 92.593 163.838 93.094 164.084 93.664C164.33 94.234 164.453 94.846 164.453 95.5C164.453 96.154 164.33 96.769 164.084 97.345C163.838 97.921 163.499 98.428 163.067 98.866C162.635 99.298 162.131 99.637 161.555 99.883C160.985 100.129 160.373 100.252 159.719 100.252C158.975 100.252 158.333 100.075 157.793 99.721C157.253 99.367 156.827 98.905 156.515 98.335V104.5ZM159.71 91.99C159.08 91.99 158.531 92.149 158.063 92.467C157.601 92.779 157.244 93.199 156.992 93.727C156.74 94.255 156.614 94.846 156.614 95.5C156.614 96.142 156.737 96.73 156.983 97.264C157.235 97.798 157.592 98.224 158.054 98.542C158.522 98.86 159.074 99.019 159.71 99.019C160.334 99.019 160.907 98.863 161.429 98.551C161.957 98.239 162.38 97.819 162.698 97.291C163.016 96.757 163.175 96.16 163.175 95.5C163.175 94.858 163.019 94.273 162.707 93.745C162.395 93.211 161.978 92.785 161.456 92.467C160.934 92.149 160.352 91.99 159.71 91.99ZM168.776 100.171C168.284 100.159 167.804 100.069 167.336 99.901C166.868 99.733 166.46 99.505 166.112 99.217C165.764 98.929 165.515 98.602 165.365 98.236L166.454 97.768C166.55 98.002 166.727 98.218 166.985 98.416C167.249 98.608 167.549 98.764 167.885 98.884C168.221 98.998 168.554 99.055 168.884 99.055C169.25 99.055 169.592 98.995 169.91 98.875C170.228 98.755 170.486 98.584 170.684 98.362C170.888 98.134 170.99 97.867 170.99 97.561C170.99 97.231 170.882 96.973 170.666 96.787C170.45 96.595 170.177 96.445 169.847 96.337C169.517 96.223 169.178 96.115 168.83 96.013C168.194 95.839 167.633 95.647 167.147 95.437C166.661 95.227 166.28 94.96 166.004 94.636C165.734 94.306 165.599 93.883 165.599 93.367C165.599 92.821 165.752 92.35 166.058 91.954C166.37 91.552 166.775 91.243 167.273 91.027C167.777 90.805 168.314 90.694 168.884 90.694C169.616 90.694 170.282 90.853 170.882 91.171C171.488 91.489 171.926 91.912 172.196 92.44L171.179 93.043C171.071 92.797 170.9 92.584 170.666 92.404C170.432 92.224 170.165 92.083 169.865 91.981C169.571 91.879 169.271 91.825 168.965 91.819C168.581 91.813 168.224 91.87 167.894 91.99C167.564 92.104 167.297 92.275 167.093 92.503C166.895 92.731 166.796 93.01 166.796 93.34C166.796 93.67 166.895 93.922 167.093 94.096C167.291 94.264 167.558 94.402 167.894 94.51C168.236 94.612 168.62 94.732 169.046 94.87C169.592 95.044 170.105 95.242 170.585 95.464C171.065 95.686 171.452 95.962 171.746 96.292C172.04 96.622 172.184 97.039 172.178 97.543C172.178 98.083 172.016 98.554 171.692 98.956C171.368 99.358 170.948 99.667 170.432 99.883C169.916 100.093 169.364 100.189 168.776 100.171Z" fill="white"/>
<path d="M97.3694 169V159.508H80.6814V152.648L95.7734 129.8H104.201V152.676H107.505V159.508H104.201V169H97.3694ZM88.6054 152.648L97.3694 152.676L97.3414 139.124L88.6054 152.648ZM113.111 172.136L114.847 162.672H121.679L117.675 172.136H113.111ZM140.267 169.728C137.859 169.728 135.675 169.177 133.715 168.076C131.755 166.975 130.187 165.5 129.011 163.652C127.854 161.785 127.275 159.713 127.275 157.436C127.275 155.644 127.676 153.964 128.479 152.396C129.3 150.809 130.402 149.475 131.783 148.392C130.7 147.403 129.814 146.236 129.123 144.892C128.451 143.529 128.115 142.073 128.115 140.524C128.115 138.415 128.666 136.492 129.767 134.756C130.868 133.02 132.334 131.639 134.163 130.612C136.011 129.585 138.046 129.072 140.267 129.072C142.507 129.072 144.542 129.585 146.371 130.612C148.2 131.639 149.666 133.02 150.767 134.756C151.868 136.492 152.419 138.415 152.419 140.524C152.419 142.073 152.083 143.529 151.411 144.892C150.758 146.236 149.871 147.403 148.751 148.392C150.17 149.475 151.28 150.809 152.083 152.396C152.904 153.964 153.315 155.644 153.315 157.436C153.315 159.695 152.727 161.757 151.551 163.624C150.394 165.472 148.826 166.956 146.847 168.076C144.868 169.177 142.675 169.728 140.267 169.728ZM140.267 162.896C141.35 162.896 142.33 162.653 143.207 162.168C144.084 161.664 144.784 161.001 145.307 160.18C145.83 159.359 146.091 158.444 146.091 157.436C146.091 156.428 145.83 155.513 145.307 154.692C144.784 153.871 144.084 153.217 143.207 152.732C142.33 152.228 141.35 151.976 140.267 151.976C139.203 151.976 138.232 152.228 137.355 152.732C136.478 153.217 135.768 153.871 135.227 154.692C134.704 155.513 134.443 156.428 134.443 157.436C134.443 158.444 134.704 159.359 135.227 160.18C135.768 161.001 136.478 161.664 137.355 162.168C138.232 162.653 139.203 162.896 140.267 162.896ZM140.267 145.144C141.182 145.144 142.012 144.939 142.759 144.528C143.506 144.099 144.094 143.539 144.523 142.848C144.971 142.157 145.195 141.383 145.195 140.524C145.195 139.665 144.971 138.891 144.523 138.2C144.094 137.509 143.506 136.959 142.759 136.548C142.012 136.119 141.182 135.904 140.267 135.904C139.371 135.904 138.55 136.119 137.803 136.548C137.056 136.959 136.459 137.509 136.011 138.2C135.563 138.891 135.339 139.665 135.339 140.524C135.339 141.383 135.563 142.157 136.011 142.848C136.459 143.539 137.056 144.099 137.803 144.528C138.55 144.939 139.371 145.144 140.267 145.144ZM172.491 169.728C170.213 169.728 168.141 169.205 166.275 168.16C164.408 167.096 162.793 165.631 161.431 163.764C160.087 161.897 159.051 159.741 158.323 157.296C157.595 154.832 157.231 152.2 157.231 149.4C157.231 146.6 157.595 143.977 158.323 141.532C159.051 139.068 160.087 136.903 161.431 135.036C162.793 133.169 164.408 131.713 166.275 130.668C168.141 129.604 170.213 129.072 172.491 129.072C174.768 129.072 176.84 129.604 178.707 130.668C180.573 131.713 182.169 133.169 183.495 135.036C184.839 136.903 185.875 139.068 186.603 141.532C187.349 143.977 187.723 146.6 187.723 149.4C187.723 152.2 187.349 154.832 186.603 157.296C185.875 159.741 184.839 161.897 183.495 163.764C182.169 165.631 180.573 167.096 178.707 168.16C176.84 169.205 174.768 169.728 172.491 169.728ZM172.491 162.896C174.488 162.896 176.14 162.261 177.447 160.992C178.753 159.723 179.724 158.061 180.359 156.008C180.993 153.955 181.311 151.752 181.311 149.4C181.311 146.917 180.975 144.659 180.303 142.624C179.631 140.571 178.641 138.937 177.335 137.724C176.028 136.511 174.413 135.904 172.491 135.904C170.979 135.904 169.663 136.277 168.543 137.024C167.441 137.752 166.527 138.751 165.799 140.02C165.071 141.289 164.529 142.736 164.175 144.36C163.82 145.965 163.643 147.645 163.643 149.4C163.643 151.733 163.96 153.936 164.595 156.008C165.248 158.061 166.228 159.723 167.535 160.992C168.86 162.261 170.512 162.896 172.491 162.896ZM204.802 169.728C202.282 169.728 200.005 169.121 197.97 167.908C195.936 166.676 194.321 165.043 193.126 163.008C191.95 160.973 191.362 158.743 191.362 156.316H198.194C198.194 157.529 198.493 158.64 199.09 159.648C199.688 160.637 200.481 161.431 201.47 162.028C202.478 162.607 203.589 162.896 204.802 162.896C206.016 162.896 207.117 162.607 208.106 162.028C209.096 161.431 209.889 160.637 210.486 159.648C211.084 158.64 211.382 157.529 211.382 156.316C211.382 155.103 211.121 153.992 210.598 152.984C210.094 151.957 209.264 151.145 208.106 150.548C206.968 149.932 205.456 149.624 203.57 149.624H193.49L197.634 129.8H216.898V136.632H203.178L201.918 142.792L204.69 142.82C207.341 142.913 209.684 143.557 211.718 144.752C213.753 145.947 215.34 147.552 216.478 149.568C217.636 151.565 218.214 153.815 218.214 156.316C218.214 158.145 217.869 159.872 217.178 161.496C216.488 163.12 215.526 164.548 214.294 165.78C213.062 167.012 211.634 167.983 210.01 168.692C208.405 169.383 206.669 169.728 204.802 169.728Z" fill="white"/>
<path d="M131.701 199.4L128.056 213.008H126.796L130.441 199.4H131.701ZM137.21 212.234C136.418 212.234 135.692 212.039 135.032 211.649C134.378 211.253 133.853 210.725 133.457 210.065C133.067 209.405 132.872 208.676 132.872 207.878C132.872 207.416 132.926 207.023 133.034 206.699C133.142 206.369 133.301 206.003 133.511 205.601L137.084 199.4H138.551L135.932 203.936C136.46 203.732 136.991 203.642 137.525 203.666C138.059 203.684 138.569 203.801 139.055 204.017C139.541 204.233 139.973 204.53 140.351 204.908C140.729 205.28 141.026 205.718 141.242 206.222C141.464 206.726 141.575 207.278 141.575 207.878C141.575 208.478 141.461 209.042 141.233 209.57C141.005 210.092 140.69 210.554 140.288 210.956C139.892 211.352 139.43 211.664 138.902 211.892C138.374 212.12 137.81 212.234 137.21 212.234ZM137.21 210.974C137.81 210.974 138.344 210.83 138.812 210.542C139.28 210.248 139.646 209.864 139.91 209.39C140.18 208.916 140.315 208.409 140.315 207.869C140.315 207.305 140.177 206.792 139.901 206.33C139.625 205.862 139.253 205.49 138.785 205.214C138.317 204.932 137.798 204.791 137.228 204.791C136.64 204.791 136.112 204.935 135.644 205.223C135.176 205.511 134.807 205.889 134.537 206.357C134.267 206.819 134.132 207.323 134.132 207.869C134.132 208.457 134.273 208.985 134.555 209.453C134.843 209.921 135.221 210.293 135.689 210.569C136.157 210.839 136.664 210.974 137.21 210.974ZM147.48 212.234C146.724 212.234 146.049 212.066 145.455 211.73C144.861 211.388 144.354 210.917 143.934 210.317C143.514 209.717 143.193 209.024 142.971 208.238C142.755 207.446 142.647 206.6 142.647 205.7C142.647 204.8 142.755 203.954 142.971 203.162C143.193 202.37 143.514 201.677 143.934 201.083C144.354 200.483 144.861 200.015 145.455 199.679C146.049 199.337 146.724 199.166 147.48 199.166C148.23 199.166 148.902 199.337 149.496 199.679C150.09 200.015 150.594 200.483 151.008 201.083C151.422 201.677 151.737 202.37 151.953 203.162C152.175 203.954 152.286 204.8 152.286 205.7C152.286 206.6 152.175 207.446 151.953 208.238C151.737 209.024 151.422 209.717 151.008 210.317C150.594 210.917 150.09 211.388 149.496 211.73C148.902 212.066 148.23 212.234 147.48 212.234ZM147.48 210.974C148.272 210.974 148.935 210.731 149.469 210.245C150.009 209.759 150.414 209.117 150.684 208.319C150.954 207.515 151.089 206.642 151.089 205.7C151.089 204.704 150.948 203.81 150.666 203.018C150.39 202.22 149.982 201.59 149.442 201.128C148.908 200.66 148.254 200.426 147.48 200.426C146.868 200.426 146.334 200.567 145.878 200.849C145.422 201.131 145.044 201.518 144.744 202.01C144.444 202.502 144.219 203.066 144.069 203.702C143.919 204.332 143.844 204.998 143.844 205.7C143.844 206.648 143.982 207.524 144.258 208.328C144.534 209.126 144.942 209.768 145.482 210.254C146.022 210.734 146.688 210.974 147.48 210.974ZM158.027 212.234C157.271 212.234 156.596 212.066 156.002 211.73C155.408 211.388 154.901 210.917 154.481 210.317C154.061 209.717 153.74 209.024 153.518 208.238C153.302 207.446 153.194 206.6 153.194 205.7C153.194 204.8 153.302 203.954 153.518 203.162C153.74 202.37 154.061 201.677 154.481 201.083C154.901 200.483 155.408 200.015 156.002 199.679C156.596 199.337 157.271 199.166 158.027 199.166C158.777 199.166 159.449 199.337 160.043 199.679C160.637 200.015 161.141 200.483 161.555 201.083C161.969 201.677 162.284 202.37 162.5 203.162C162.722 203.954 162.833 204.8 162.833 205.7C162.833 206.6 162.722 207.446 162.5 208.238C162.284 209.024 161.969 209.717 161.555 210.317C161.141 210.917 160.637 211.388 160.043 211.73C159.449 212.066 158.777 212.234 158.027 212.234ZM158.027 210.974C158.819 210.974 159.482 210.731 160.016 210.245C160.556 209.759 160.961 209.117 161.231 208.319C161.501 207.515 161.636 206.642 161.636 205.7C161.636 204.704 161.495 203.81 161.213 203.018C160.937 202.22 160.529 201.59 159.989 201.128C159.455 200.66 158.801 200.426 158.027 200.426C157.415 200.426 156.881 200.567 156.425 200.849C155.969 201.131 155.591 201.518 155.291 202.01C154.991 202.502 154.766 203.066 154.616 203.702C154.466 204.332 154.391 204.998 154.391 205.7C154.391 206.648 154.529 207.524 154.805 208.328C155.081 209.126 155.489 209.768 156.029 210.254C156.569 210.734 157.235 210.974 158.027 210.974ZM168.574 212.234C167.818 212.234 167.143 212.066 166.549 211.73C165.955 211.388 165.448 210.917 165.028 210.317C164.608 209.717 164.287 209.024 164.065 208.238C163.849 207.446 163.741 206.6 163.741 205.7C163.741 204.8 163.849 203.954 164.065 203.162C164.287 202.37 164.608 201.677 165.028 201.083C165.448 200.483 165.955 200.015 166.549 199.679C167.143 199.337 167.818 199.166 168.574 199.166C169.324 199.166 169.996 199.337 170.59 199.679C171.184 200.015 171.688 200.483 172.102 201.083C172.516 201.677 172.831 202.37 173.047 203.162C173.269 203.954 173.38 204.8 173.38 205.7C173.38 206.6 173.269 207.446 173.047 208.238C172.831 209.024 172.516 209.717 172.102 210.317C171.688 210.917 171.184 211.388 170.59 211.73C169.996 212.066 169.324 212.234 168.574 212.234ZM168.574 210.974C169.366 210.974 170.029 210.731 170.563 210.245C171.103 209.759 171.508 209.117 171.778 208.319C172.048 207.515 172.183 206.642 172.183 205.7C172.183 204.704 172.042 203.81 171.76 203.018C171.484 202.22 171.076 201.59 170.536 201.128C170.002 200.66 169.348 200.426 168.574 200.426C167.962 200.426 167.428 200.567 166.972 200.849C166.516 201.131 166.138 201.518 165.838 202.01C165.538 202.502 165.313 203.066 165.163 203.702C165.013 204.332 164.938 204.998 164.938 205.7C164.938 206.648 165.076 207.524 165.352 208.328C165.628 209.126 166.036 209.768 166.576 210.254C167.116 210.734 167.782 210.974 168.574 210.974Z" fill="white"/>
<defs>
<filter id="filter0_i_529_10170" x="-4" y="0" width="304" height="274.26" filterUnits="userSpaceOnUse" color-interpolation-filters="sRGB">
<feFlood flood-opacity="0" result="BackgroundImageFix"/>
<feBlend mode="normal" in="SourceGraphic" in2="BackgroundImageFix" result="shape"/>
<feColorMatrix in="SourceAlpha" type="matrix" values="0 0 0 0 0 0 0 0 0 0 0 0 0 0 0 0 0 0 127 0" result="hardAlpha"/>
<feOffset dx="-4"/>
<feGaussianBlur stdDeviation="4"/>
<feComposite in2="hardAlpha" operator="arithmetic" k2="-1" k3="1"/>
<feColorMatrix type="matrix" values="0 0 0 0 0 0 0 0 0 0 0 0 0 0 0 0 0 0 0.12 0"/>
<feBlend mode="normal" in2="shape" result="effect1_innerShadow_529_10170"/>
</filter>
</defs>
</svg>
