<svg width="382" height="412" viewBox="0 0 382 412" fill="none" xmlns="http://www.w3.org/2000/svg">
<g filter="url(#filter0_i_529_10107)">
<path d="M123.5 290.913C119.358 298.088 110.13 300.605 103.405 295.767C80.834 279.531 63.1336 257.272 52.4181 231.402C39.7818 200.896 37.5649 167.072 46.1111 135.177C54.6574 103.282 73.4892 75.0984 99.6858 54.997C125.882 34.8956 157.98 24 191 24C224.02 24 256.118 34.8956 282.314 54.997C308.511 75.0984 327.343 103.282 335.889 135.177C344.435 167.072 342.218 200.896 329.582 231.403C318.866 257.272 301.166 279.531 278.595 295.767C271.869 300.605 262.642 298.088 258.5 290.913C254.358 283.739 256.887 274.636 263.489 269.632C280.396 256.816 293.679 239.687 301.866 219.922C311.975 195.517 313.748 168.458 306.911 142.942C300.074 117.426 285.009 94.8787 264.051 78.7976C243.094 62.7165 217.416 54 191 54C164.584 54 138.906 62.7165 117.949 78.7976C96.9913 94.8787 81.9259 117.426 75.0889 142.942C68.2519 168.458 70.0255 195.517 80.1345 219.922C88.3213 239.687 101.604 256.816 118.511 269.632C125.113 274.636 127.642 283.739 123.5 290.913Z" fill="#EEEEEE"/>
</g>
<path d="M123.5 290.913C119.358 298.088 110.131 300.605 103.406 295.767C86.1643 283.365 71.7049 267.406 61.0419 248.906C47.8748 226.062 40.962 200.15 41.0002 173.783C41.0384 147.415 48.0262 121.524 61.2595 98.7178C74.4928 75.9117 93.5039 56.9968 116.377 43.8794C139.25 30.7619 165.176 23.9055 191.543 24.001C217.911 24.0965 243.787 31.1406 266.564 44.4234C289.341 57.7062 308.215 76.7584 321.283 99.6597C331.865 118.206 338.337 138.745 340.335 159.89C341.114 168.138 334.282 174.83 325.998 174.782C317.714 174.734 311.134 167.955 310.148 159.729C308.249 143.867 303.193 128.491 295.226 114.528C284.772 96.2067 269.673 80.965 251.451 70.3387C233.229 59.7125 212.528 54.0772 191.435 54.0008C170.341 53.9244 149.6 59.4095 131.301 69.9035C113.003 80.3975 97.7942 95.5294 87.2076 113.774C76.621 132.019 71.0307 152.732 71.0001 173.826C70.9696 194.92 76.4998 215.649 87.0335 233.925C95.0616 247.853 105.78 259.981 118.511 269.632C125.113 274.636 127.642 283.739 123.5 290.913Z" fill="#59BCB1"/>
<mask id="path-4-inside-1_529_10107" fill="white">
<path d="M163 296C163 280.536 175.536 268 191 268C206.464 268 219 280.536 219 296C219 311.464 206.464 324 191 324C175.536 324 163 311.464 163 296Z"/>
</mask>
<path d="M191 322C176.641 322 165 310.359 165 296H161C161 312.569 174.431 326 191 326V322ZM217 296C217 310.359 205.359 322 191 322V326C207.569 326 221 312.569 221 296H217ZM191 270C205.359 270 217 281.641 217 296H221C221 279.431 207.569 266 191 266V270ZM191 266C174.431 266 161 279.431 161 296H165C165 281.641 176.641 270 191 270V266Z" fill="#59BCB1" mask="url(#path-4-inside-1_529_10107)"/>
<path d="M199.945 288.222V303.778C199.945 304.19 199.781 304.586 199.489 304.878C199.197 305.169 198.802 305.333 198.389 305.333H194.5C194.088 305.333 193.692 305.169 193.4 304.878C193.108 304.586 192.945 304.19 192.945 303.778V288.222C192.945 287.81 193.108 287.414 193.4 287.122C193.692 286.831 194.088 286.667 194.5 286.667H198.389C198.802 286.667 199.197 286.831 199.489 287.122C199.781 287.414 199.945 287.81 199.945 288.222ZM188.278 286.667H184.389C183.976 286.667 183.581 286.831 183.289 287.122C182.997 287.414 182.833 287.81 182.833 288.222V303.778C182.833 304.19 182.997 304.586 183.289 304.878C183.581 305.169 183.976 305.333 184.389 305.333H188.278C188.69 305.333 189.086 305.169 189.378 304.878C189.67 304.586 189.833 304.19 189.833 303.778V288.222C189.833 287.81 189.67 287.414 189.378 287.122C189.086 286.831 188.69 286.667 188.278 286.667Z" fill="#59BCB1"/>
<path d="M261.702 244.72C279.803 226.623 291 201.619 291 174C291 118.772 246.228 74 191 74C135.772 74 91 118.772 91 174C91 201.615 102.193 226.615 120.29 244.712" stroke="#BDBDBD" stroke-width="6" stroke-linejoin="round" stroke-dasharray="2 32"/>
<path d="M173.832 124.234C173.16 124.234 172.509 124.129 171.879 123.919C171.255 123.709 170.709 123.409 170.241 123.019C169.773 122.629 169.443 122.164 169.251 121.624L170.43 121.183C170.562 121.555 170.802 121.876 171.15 122.146C171.504 122.41 171.915 122.614 172.383 122.758C172.857 122.902 173.34 122.974 173.832 122.974C174.408 122.974 174.945 122.878 175.443 122.686C175.941 122.494 176.343 122.227 176.649 121.885C176.955 121.537 177.108 121.129 177.108 120.661C177.108 120.187 176.949 119.797 176.631 119.491C176.313 119.185 175.902 118.945 175.398 118.771C174.9 118.591 174.378 118.453 173.832 118.357C172.974 118.207 172.203 118.003 171.519 117.745C170.841 117.487 170.304 117.124 169.908 116.656C169.512 116.182 169.314 115.558 169.314 114.784C169.314 114.058 169.524 113.428 169.944 112.894C170.364 112.36 170.916 111.946 171.6 111.652C172.29 111.358 173.034 111.211 173.832 111.211C174.486 111.211 175.125 111.313 175.749 111.517C176.373 111.721 176.922 112.018 177.396 112.408C177.876 112.798 178.221 113.275 178.431 113.839L177.234 114.271C177.102 113.893 176.859 113.572 176.505 113.308C176.157 113.038 175.749 112.834 175.281 112.696C174.813 112.552 174.33 112.48 173.832 112.48C173.262 112.474 172.728 112.57 172.23 112.768C171.738 112.96 171.339 113.23 171.033 113.578C170.727 113.92 170.574 114.322 170.574 114.784C170.574 115.324 170.715 115.741 170.997 116.035C171.285 116.323 171.675 116.539 172.167 116.683C172.659 116.827 173.214 116.956 173.832 117.07C174.636 117.208 175.383 117.424 176.073 117.718C176.763 118.006 177.318 118.393 177.738 118.879C178.158 119.359 178.368 119.953 178.368 120.661C178.368 121.381 178.158 122.011 177.738 122.551C177.318 123.085 176.763 123.499 176.073 123.793C175.389 124.087 174.642 124.234 173.832 124.234ZM184.928 116.26H182.777L182.768 124H181.508L181.517 116.26H179.888V115H181.517L181.508 112.174H182.768L182.777 115H184.928V116.26ZM190.248 124.234C189.42 124.234 188.664 124.021 187.98 123.595C187.302 123.169 186.759 122.599 186.351 121.885C185.949 121.165 185.748 120.37 185.748 119.5C185.748 118.84 185.865 118.225 186.099 117.655C186.333 117.079 186.654 116.575 187.062 116.143C187.476 115.705 187.956 115.363 188.502 115.117C189.048 114.871 189.63 114.748 190.248 114.748C190.914 114.748 191.526 114.88 192.084 115.144C192.648 115.408 193.131 115.777 193.533 116.251C193.941 116.725 194.247 117.28 194.451 117.916C194.661 118.552 194.748 119.239 194.712 119.977H187.08C187.152 120.547 187.332 121.057 187.62 121.507C187.914 121.957 188.286 122.314 188.736 122.578C189.192 122.836 189.696 122.968 190.248 122.974C190.848 122.974 191.388 122.818 191.868 122.506C192.354 122.194 192.744 121.765 193.038 121.219L194.316 121.516C193.956 122.314 193.413 122.968 192.687 123.478C191.961 123.982 191.148 124.234 190.248 124.234ZM187.044 118.96H193.443C193.401 118.402 193.23 117.892 192.93 117.43C192.636 116.962 192.255 116.59 191.787 116.314C191.319 116.032 190.806 115.891 190.248 115.891C189.69 115.891 189.18 116.029 188.718 116.305C188.256 116.575 187.878 116.944 187.584 117.412C187.29 117.874 187.11 118.39 187.044 118.96ZM197.515 128.5H196.255V115H197.515V116.683C197.827 116.113 198.253 115.651 198.793 115.297C199.333 114.943 199.975 114.766 200.719 114.766C201.373 114.766 201.985 114.889 202.555 115.135C203.131 115.381 203.635 115.723 204.067 116.161C204.499 116.593 204.838 117.094 205.084 117.664C205.33 118.234 205.453 118.846 205.453 119.5C205.453 120.154 205.33 120.769 205.084 121.345C204.838 121.921 204.499 122.428 204.067 122.866C203.635 123.298 203.131 123.637 202.555 123.883C201.985 124.129 201.373 124.252 200.719 124.252C199.975 124.252 199.333 124.075 198.793 123.721C198.253 123.367 197.827 122.905 197.515 122.335V128.5ZM200.71 115.99C200.08 115.99 199.531 116.149 199.063 116.467C198.601 116.779 198.244 117.199 197.992 117.727C197.74 118.255 197.614 118.846 197.614 119.5C197.614 120.142 197.737 120.73 197.983 121.264C198.235 121.798 198.592 122.224 199.054 122.542C199.522 122.86 200.074 123.019 200.71 123.019C201.334 123.019 201.907 122.863 202.429 122.551C202.957 122.239 203.38 121.819 203.698 121.291C204.016 120.757 204.175 120.16 204.175 119.5C204.175 118.858 204.019 118.273 203.707 117.745C203.395 117.211 202.978 116.785 202.456 116.467C201.934 116.149 201.352 115.99 200.71 115.99ZM209.776 124.171C209.284 124.159 208.804 124.069 208.336 123.901C207.868 123.733 207.46 123.505 207.112 123.217C206.764 122.929 206.515 122.602 206.365 122.236L207.454 121.768C207.55 122.002 207.727 122.218 207.985 122.416C208.249 122.608 208.549 122.764 208.885 122.884C209.221 122.998 209.554 123.055 209.884 123.055C210.25 123.055 210.592 122.995 210.91 122.875C211.228 122.755 211.486 122.584 211.684 122.362C211.888 122.134 211.99 121.867 211.99 121.561C211.99 121.231 211.882 120.973 211.666 120.787C211.45 120.595 211.177 120.445 210.847 120.337C210.517 120.223 210.178 120.115 209.83 120.013C209.194 119.839 208.633 119.647 208.147 119.437C207.661 119.227 207.28 118.96 207.004 118.636C206.734 118.306 206.599 117.883 206.599 117.367C206.599 116.821 206.752 116.35 207.058 115.954C207.37 115.552 207.775 115.243 208.273 115.027C208.777 114.805 209.314 114.694 209.884 114.694C210.616 114.694 211.282 114.853 211.882 115.171C212.488 115.489 212.926 115.912 213.196 116.44L212.179 117.043C212.071 116.797 211.9 116.584 211.666 116.404C211.432 116.224 211.165 116.083 210.865 115.981C210.571 115.879 210.271 115.825 209.965 115.819C209.581 115.813 209.224 115.87 208.894 115.99C208.564 116.104 208.297 116.275 208.093 116.503C207.895 116.731 207.796 117.01 207.796 117.34C207.796 117.67 207.895 117.922 208.093 118.096C208.291 118.264 208.558 118.402 208.894 118.51C209.236 118.612 209.62 118.732 210.046 118.87C210.592 119.044 211.105 119.242 211.585 119.464C212.065 119.686 212.452 119.962 212.746 120.292C213.04 120.622 213.184 121.039 213.178 121.543C213.178 122.083 213.016 122.554 212.692 122.956C212.368 123.358 211.948 123.667 211.432 123.883C210.916 124.093 210.364 124.189 209.776 124.171Z" fill="white"/>
<path d="M138.369 193V183.508H121.681V176.648L136.773 153.8H145.201V176.676H148.505V183.508H145.201V193H138.369ZM129.605 176.648L138.369 176.676L138.341 163.124L129.605 176.648ZM154.111 196.136L155.847 186.672H162.679L158.675 196.136H154.111ZM181.267 193.728C178.859 193.728 176.675 193.177 174.715 192.076C172.755 190.975 171.187 189.5 170.011 187.652C168.854 185.785 168.275 183.713 168.275 181.436C168.275 179.644 168.676 177.964 169.479 176.396C170.3 174.809 171.402 173.475 172.783 172.392C171.7 171.403 170.814 170.236 170.123 168.892C169.451 167.529 169.115 166.073 169.115 164.524C169.115 162.415 169.666 160.492 170.767 158.756C171.868 157.02 173.334 155.639 175.163 154.612C177.011 153.585 179.046 153.072 181.267 153.072C183.507 153.072 185.542 153.585 187.371 154.612C189.2 155.639 190.666 157.02 191.767 158.756C192.868 160.492 193.419 162.415 193.419 164.524C193.419 166.073 193.083 167.529 192.411 168.892C191.758 170.236 190.871 171.403 189.751 172.392C191.17 173.475 192.28 174.809 193.083 176.396C193.904 177.964 194.315 179.644 194.315 181.436C194.315 183.695 193.727 185.757 192.551 187.624C191.394 189.472 189.826 190.956 187.847 192.076C185.868 193.177 183.675 193.728 181.267 193.728ZM181.267 186.896C182.35 186.896 183.33 186.653 184.207 186.168C185.084 185.664 185.784 185.001 186.307 184.18C186.83 183.359 187.091 182.444 187.091 181.436C187.091 180.428 186.83 179.513 186.307 178.692C185.784 177.871 185.084 177.217 184.207 176.732C183.33 176.228 182.35 175.976 181.267 175.976C180.203 175.976 179.232 176.228 178.355 176.732C177.478 177.217 176.768 177.871 176.227 178.692C175.704 179.513 175.443 180.428 175.443 181.436C175.443 182.444 175.704 183.359 176.227 184.18C176.768 185.001 177.478 185.664 178.355 186.168C179.232 186.653 180.203 186.896 181.267 186.896ZM181.267 169.144C182.182 169.144 183.012 168.939 183.759 168.528C184.506 168.099 185.094 167.539 185.523 166.848C185.971 166.157 186.195 165.383 186.195 164.524C186.195 163.665 185.971 162.891 185.523 162.2C185.094 161.509 184.506 160.959 183.759 160.548C183.012 160.119 182.182 159.904 181.267 159.904C180.371 159.904 179.55 160.119 178.803 160.548C178.056 160.959 177.459 161.509 177.011 162.2C176.563 162.891 176.339 163.665 176.339 164.524C176.339 165.383 176.563 166.157 177.011 166.848C177.459 167.539 178.056 168.099 178.803 168.528C179.55 168.939 180.371 169.144 181.267 169.144ZM213.491 193.728C211.213 193.728 209.141 193.205 207.275 192.16C205.408 191.096 203.793 189.631 202.431 187.764C201.087 185.897 200.051 183.741 199.323 181.296C198.595 178.832 198.231 176.2 198.231 173.4C198.231 170.6 198.595 167.977 199.323 165.532C200.051 163.068 201.087 160.903 202.431 159.036C203.793 157.169 205.408 155.713 207.275 154.668C209.141 153.604 211.213 153.072 213.491 153.072C215.768 153.072 217.84 153.604 219.707 154.668C221.573 155.713 223.169 157.169 224.495 159.036C225.839 160.903 226.875 163.068 227.603 165.532C228.349 167.977 228.723 170.6 228.723 173.4C228.723 176.2 228.349 178.832 227.603 181.296C226.875 183.741 225.839 185.897 224.495 187.764C223.169 189.631 221.573 191.096 219.707 192.16C217.84 193.205 215.768 193.728 213.491 193.728ZM213.491 186.896C215.488 186.896 217.14 186.261 218.447 184.992C219.753 183.723 220.724 182.061 221.359 180.008C221.993 177.955 222.311 175.752 222.311 173.4C222.311 170.917 221.975 168.659 221.303 166.624C220.631 164.571 219.641 162.937 218.335 161.724C217.028 160.511 215.413 159.904 213.491 159.904C211.979 159.904 210.663 160.277 209.543 161.024C208.441 161.752 207.527 162.751 206.799 164.02C206.071 165.289 205.529 166.736 205.175 168.36C204.82 169.965 204.643 171.645 204.643 173.4C204.643 175.733 204.96 177.936 205.595 180.008C206.248 182.061 207.228 183.723 208.535 184.992C209.86 186.261 211.512 186.896 213.491 186.896ZM245.802 193.728C243.282 193.728 241.005 193.121 238.97 191.908C236.936 190.676 235.321 189.043 234.126 187.008C232.95 184.973 232.362 182.743 232.362 180.316H239.194C239.194 181.529 239.493 182.64 240.09 183.648C240.688 184.637 241.481 185.431 242.47 186.028C243.478 186.607 244.589 186.896 245.802 186.896C247.016 186.896 248.117 186.607 249.106 186.028C250.096 185.431 250.889 184.637 251.486 183.648C252.084 182.64 252.382 181.529 252.382 180.316C252.382 179.103 252.121 177.992 251.598 176.984C251.094 175.957 250.264 175.145 249.106 174.548C247.968 173.932 246.456 173.624 244.57 173.624H234.49L238.634 153.8H257.898V160.632H244.178L242.918 166.792L245.69 166.82C248.341 166.913 250.684 167.557 252.718 168.752C254.753 169.947 256.34 171.552 257.478 173.568C258.636 175.565 259.214 177.815 259.214 180.316C259.214 182.145 258.869 183.872 258.178 185.496C257.488 187.12 256.526 188.548 255.294 189.78C254.062 191.012 252.634 191.983 251.01 192.692C249.405 193.383 247.669 193.728 245.802 193.728Z" fill="white"/>
<path d="M172.701 223.4L169.056 237.008H167.796L171.441 223.4H172.701ZM178.21 236.234C177.418 236.234 176.692 236.039 176.032 235.649C175.378 235.253 174.853 234.725 174.457 234.065C174.067 233.405 173.872 232.676 173.872 231.878C173.872 231.416 173.926 231.023 174.034 230.699C174.142 230.369 174.301 230.003 174.511 229.601L178.084 223.4H179.551L176.932 227.936C177.46 227.732 177.991 227.642 178.525 227.666C179.059 227.684 179.569 227.801 180.055 228.017C180.541 228.233 180.973 228.53 181.351 228.908C181.729 229.28 182.026 229.718 182.242 230.222C182.464 230.726 182.575 231.278 182.575 231.878C182.575 232.478 182.461 233.042 182.233 233.57C182.005 234.092 181.69 234.554 181.288 234.956C180.892 235.352 180.43 235.664 179.902 235.892C179.374 236.12 178.81 236.234 178.21 236.234ZM178.21 234.974C178.81 234.974 179.344 234.83 179.812 234.542C180.28 234.248 180.646 233.864 180.91 233.39C181.18 232.916 181.315 232.409 181.315 231.869C181.315 231.305 181.177 230.792 180.901 230.33C180.625 229.862 180.253 229.49 179.785 229.214C179.317 228.932 178.798 228.791 178.228 228.791C177.64 228.791 177.112 228.935 176.644 229.223C176.176 229.511 175.807 229.889 175.537 230.357C175.267 230.819 175.132 231.323 175.132 231.869C175.132 232.457 175.273 232.985 175.555 233.453C175.843 233.921 176.221 234.293 176.689 234.569C177.157 234.839 177.664 234.974 178.21 234.974ZM188.48 236.234C187.724 236.234 187.049 236.066 186.455 235.73C185.861 235.388 185.354 234.917 184.934 234.317C184.514 233.717 184.193 233.024 183.971 232.238C183.755 231.446 183.647 230.6 183.647 229.7C183.647 228.8 183.755 227.954 183.971 227.162C184.193 226.37 184.514 225.677 184.934 225.083C185.354 224.483 185.861 224.015 186.455 223.679C187.049 223.337 187.724 223.166 188.48 223.166C189.23 223.166 189.902 223.337 190.496 223.679C191.09 224.015 191.594 224.483 192.008 225.083C192.422 225.677 192.737 226.37 192.953 227.162C193.175 227.954 193.286 228.8 193.286 229.7C193.286 230.6 193.175 231.446 192.953 232.238C192.737 233.024 192.422 233.717 192.008 234.317C191.594 234.917 191.09 235.388 190.496 235.73C189.902 236.066 189.23 236.234 188.48 236.234ZM188.48 234.974C189.272 234.974 189.935 234.731 190.469 234.245C191.009 233.759 191.414 233.117 191.684 232.319C191.954 231.515 192.089 230.642 192.089 229.7C192.089 228.704 191.948 227.81 191.666 227.018C191.39 226.22 190.982 225.59 190.442 225.128C189.908 224.66 189.254 224.426 188.48 224.426C187.868 224.426 187.334 224.567 186.878 224.849C186.422 225.131 186.044 225.518 185.744 226.01C185.444 226.502 185.219 227.066 185.069 227.702C184.919 228.332 184.844 228.998 184.844 229.7C184.844 230.648 184.982 231.524 185.258 232.328C185.534 233.126 185.942 233.768 186.482 234.254C187.022 234.734 187.688 234.974 188.48 234.974ZM199.027 236.234C198.271 236.234 197.596 236.066 197.002 235.73C196.408 235.388 195.901 234.917 195.481 234.317C195.061 233.717 194.74 233.024 194.518 232.238C194.302 231.446 194.194 230.6 194.194 229.7C194.194 228.8 194.302 227.954 194.518 227.162C194.74 226.37 195.061 225.677 195.481 225.083C195.901 224.483 196.408 224.015 197.002 223.679C197.596 223.337 198.271 223.166 199.027 223.166C199.777 223.166 200.449 223.337 201.043 223.679C201.637 224.015 202.141 224.483 202.555 225.083C202.969 225.677 203.284 226.37 203.5 227.162C203.722 227.954 203.833 228.8 203.833 229.7C203.833 230.6 203.722 231.446 203.5 232.238C203.284 233.024 202.969 233.717 202.555 234.317C202.141 234.917 201.637 235.388 201.043 235.73C200.449 236.066 199.777 236.234 199.027 236.234ZM199.027 234.974C199.819 234.974 200.482 234.731 201.016 234.245C201.556 233.759 201.961 233.117 202.231 232.319C202.501 231.515 202.636 230.642 202.636 229.7C202.636 228.704 202.495 227.81 202.213 227.018C201.937 226.22 201.529 225.59 200.989 225.128C200.455 224.66 199.801 224.426 199.027 224.426C198.415 224.426 197.881 224.567 197.425 224.849C196.969 225.131 196.591 225.518 196.291 226.01C195.991 226.502 195.766 227.066 195.616 227.702C195.466 228.332 195.391 228.998 195.391 229.7C195.391 230.648 195.529 231.524 195.805 232.328C196.081 233.126 196.489 233.768 197.029 234.254C197.569 234.734 198.235 234.974 199.027 234.974ZM209.574 236.234C208.818 236.234 208.143 236.066 207.549 235.73C206.955 235.388 206.448 234.917 206.028 234.317C205.608 233.717 205.287 233.024 205.065 232.238C204.849 231.446 204.741 230.6 204.741 229.7C204.741 228.8 204.849 227.954 205.065 227.162C205.287 226.37 205.608 225.677 206.028 225.083C206.448 224.483 206.955 224.015 207.549 223.679C208.143 223.337 208.818 223.166 209.574 223.166C210.324 223.166 210.996 223.337 211.59 223.679C212.184 224.015 212.688 224.483 213.102 225.083C213.516 225.677 213.831 226.37 214.047 227.162C214.269 227.954 214.38 228.8 214.38 229.7C214.38 230.6 214.269 231.446 214.047 232.238C213.831 233.024 213.516 233.717 213.102 234.317C212.688 234.917 212.184 235.388 211.59 235.73C210.996 236.066 210.324 236.234 209.574 236.234ZM209.574 234.974C210.366 234.974 211.029 234.731 211.563 234.245C212.103 233.759 212.508 233.117 212.778 232.319C213.048 231.515 213.183 230.642 213.183 229.7C213.183 228.704 213.042 227.81 212.76 227.018C212.484 226.22 212.076 225.59 211.536 225.128C211.002 224.66 210.348 224.426 209.574 224.426C208.962 224.426 208.428 224.567 207.972 224.849C207.516 225.131 207.138 225.518 206.838 226.01C206.538 226.502 206.313 227.066 206.163 227.702C206.013 228.332 205.938 228.998 205.938 229.7C205.938 230.648 206.076 231.524 206.352 232.328C206.628 233.126 207.036 233.768 207.576 234.254C208.116 234.734 208.782 234.974 209.574 234.974Z" fill="white"/>
<path d="M34.4998 382.393C41.068 382.393 46.3926 377.068 46.3926 370.5C46.3926 363.932 41.068 358.607 34.4998 358.607C27.9315 358.607 22.6069 363.932 22.6069 370.5C22.6069 377.068 27.9315 382.393 34.4998 382.393Z" stroke="#F9B438" stroke-width="2" stroke-miterlimit="10" stroke-linecap="round" stroke-linejoin="round"/>
<path d="M31.4233 374.813H35.4352C36.6245 374.813 37.5918 373.846 37.5918 372.656C37.5918 371.467 36.6245 370.5 35.4352 370.5H33.5799C32.3906 370.5 31.4233 369.532 31.4233 368.343C31.4233 367.154 32.3906 366.187 33.5799 366.187H37.5918" stroke="#F9B438" stroke-width="2" stroke-miterlimit="10" stroke-linecap="round" stroke-linejoin="round"/>
<path d="M34.5 366.187V364.157" stroke="#F9B438" stroke-width="2" stroke-miterlimit="10" stroke-linecap="round" stroke-linejoin="round"/>
<path d="M34.5 374.813V376.843" stroke="#F9B438" stroke-width="2" stroke-miterlimit="10" stroke-linecap="round" stroke-linejoin="round"/>
<rect x="126" y="351" width="90" height="39" rx="5" fill="#D0952D"/>
<path d="M148.016 377.76C147.069 377.76 146.179 377.573 145.346 377.2C144.513 376.82 143.779 376.3 143.146 375.64C142.519 374.973 142.026 374.2 141.666 373.32C141.313 372.44 141.136 371.5 141.136 370.5C141.136 369.5 141.313 368.56 141.666 367.68C142.026 366.8 142.519 366.03 143.146 365.37C143.779 364.703 144.513 364.183 145.346 363.81C146.179 363.43 147.069 363.24 148.016 363.24C149.149 363.24 150.193 363.503 151.146 364.03C152.099 364.557 152.889 365.257 153.516 366.13L151.666 367.12C151.233 366.573 150.696 366.137 150.056 365.81C149.416 365.483 148.736 365.32 148.016 365.32C147.349 365.32 146.726 365.457 146.146 365.73C145.566 366.003 145.056 366.377 144.616 366.85C144.176 367.323 143.833 367.873 143.586 368.5C143.339 369.127 143.216 369.793 143.216 370.5C143.216 371.213 143.339 371.883 143.586 372.51C143.833 373.13 144.176 373.68 144.616 374.16C145.063 374.633 145.576 375.007 146.156 375.28C146.736 375.547 147.356 375.68 148.016 375.68C148.749 375.68 149.433 375.517 150.066 375.19C150.706 374.857 151.239 374.417 151.666 373.87L153.516 374.88C152.889 375.753 152.099 376.453 151.146 376.98C150.193 377.5 149.149 377.76 148.016 377.76ZM159.334 377.76C158.414 377.76 157.574 377.523 156.814 377.05C156.061 376.577 155.458 375.943 155.004 375.15C154.558 374.35 154.334 373.467 154.334 372.5C154.334 371.767 154.464 371.083 154.724 370.45C154.984 369.81 155.341 369.25 155.794 368.77C156.254 368.283 156.788 367.903 157.394 367.63C158.001 367.357 158.648 367.22 159.334 367.22C160.254 367.22 161.091 367.457 161.844 367.93C162.604 368.403 163.208 369.04 163.654 369.84C164.108 370.64 164.334 371.527 164.334 372.5C164.334 373.227 164.204 373.907 163.944 374.54C163.684 375.173 163.324 375.733 162.864 376.22C162.411 376.7 161.881 377.077 161.274 377.35C160.674 377.623 160.028 377.76 159.334 377.76ZM159.334 375.68C159.888 375.68 160.384 375.533 160.824 375.24C161.264 374.947 161.611 374.56 161.864 374.08C162.124 373.593 162.254 373.067 162.254 372.5C162.254 371.92 162.121 371.387 161.854 370.9C161.594 370.413 161.244 370.027 160.804 369.74C160.364 369.447 159.874 369.3 159.334 369.3C158.788 369.3 158.291 369.447 157.844 369.74C157.404 370.033 157.054 370.423 156.794 370.91C156.541 371.397 156.414 371.927 156.414 372.5C156.414 373.093 156.548 373.63 156.814 374.11C157.081 374.59 157.434 374.973 157.874 375.26C158.321 375.54 158.808 375.68 159.334 375.68ZM165.813 377.5V362.5H167.893V377.5H165.813ZM170.286 377.5V362.5H172.366V377.5H170.286ZM179.022 377.76C178.102 377.76 177.262 377.523 176.502 377.05C175.749 376.577 175.145 375.943 174.692 375.15C174.245 374.35 174.022 373.467 174.022 372.5C174.022 371.767 174.152 371.083 174.412 370.45C174.672 369.81 175.029 369.25 175.482 368.77C175.942 368.283 176.475 367.903 177.082 367.63C177.689 367.357 178.335 367.22 179.022 367.22C179.789 367.22 180.492 367.38 181.132 367.7C181.772 368.013 182.319 368.45 182.772 369.01C183.225 369.563 183.559 370.203 183.772 370.93C183.985 371.65 184.049 372.417 183.962 373.23H176.252C176.339 373.69 176.505 374.107 176.752 374.48C177.005 374.847 177.325 375.137 177.712 375.35C178.105 375.563 178.542 375.673 179.022 375.68C179.529 375.68 179.989 375.553 180.402 375.3C180.822 375.047 181.165 374.697 181.432 374.25L183.542 374.74C183.142 375.627 182.539 376.353 181.732 376.92C180.925 377.48 180.022 377.76 179.022 377.76ZM176.182 371.64H181.862C181.795 371.16 181.625 370.727 181.352 370.34C181.085 369.947 180.749 369.637 180.342 369.41C179.942 369.177 179.502 369.06 179.022 369.06C178.549 369.06 178.109 369.173 177.702 369.4C177.302 369.627 176.969 369.937 176.702 370.33C176.442 370.717 176.269 371.153 176.182 371.64ZM192.128 374.66L193.988 375.67C193.535 376.303 192.958 376.81 192.258 377.19C191.565 377.57 190.812 377.76 189.998 377.76C189.078 377.76 188.238 377.523 187.478 377.05C186.725 376.577 186.122 375.943 185.668 375.15C185.222 374.35 184.998 373.467 184.998 372.5C184.998 371.767 185.128 371.083 185.388 370.45C185.648 369.81 186.005 369.25 186.458 368.77C186.918 368.283 187.452 367.903 188.058 367.63C188.665 367.357 189.312 367.22 189.998 367.22C190.812 367.22 191.565 367.41 192.258 367.79C192.958 368.17 193.535 368.68 193.988 369.32L192.128 370.33C191.848 369.997 191.522 369.743 191.148 369.57C190.775 369.39 190.392 369.3 189.998 369.3C189.452 369.3 188.955 369.45 188.508 369.75C188.068 370.043 187.718 370.433 187.458 370.92C187.205 371.4 187.078 371.927 187.078 372.5C187.078 373.067 187.208 373.593 187.468 374.08C187.728 374.56 188.078 374.947 188.518 375.24C188.965 375.533 189.458 375.68 189.998 375.68C190.412 375.68 190.805 375.587 191.178 375.4C191.552 375.213 191.868 374.967 192.128 374.66ZM201.074 369.58H198.974L198.964 377.5H196.884L196.894 369.58H195.304V367.5H196.894L196.884 364.36H198.964L198.974 367.5H201.074V369.58Z" fill="white" fill-opacity="0.6"/>
<rect x="272" y="351" width="90" height="39" rx="5" fill="#59BCB1"/>
<path d="M292.581 377.76C291.607 377.76 290.701 377.573 289.861 377.2C289.027 376.82 288.297 376.297 287.671 375.63C287.051 374.957 286.564 374.18 286.211 373.3C285.864 372.42 285.691 371.483 285.691 370.49C285.691 369.443 285.877 368.48 286.251 367.6C286.624 366.72 287.134 365.957 287.781 365.31C288.427 364.657 289.164 364.15 289.991 363.79C290.824 363.43 291.697 363.25 292.611 363.25C293.644 363.25 294.637 363.49 295.591 363.97C296.544 364.45 297.374 365.17 298.081 366.13L296.221 367.14C295.741 366.54 295.181 366.087 294.541 365.78C293.907 365.473 293.257 365.32 292.591 365.32C291.944 365.32 291.331 365.453 290.751 365.72C290.171 365.98 289.657 366.347 289.211 366.82C288.764 367.287 288.411 367.837 288.151 368.47C287.897 369.097 287.771 369.78 287.771 370.52C287.771 371.233 287.894 371.903 288.141 372.53C288.394 373.157 288.741 373.707 289.181 374.18C289.627 374.647 290.141 375.013 290.721 375.28C291.307 375.547 291.934 375.68 292.601 375.68C293.094 375.68 293.567 375.6 294.021 375.44C294.474 375.28 294.894 375.053 295.281 374.76C295.674 374.46 296.017 374.103 296.311 373.69C296.604 373.277 296.837 372.817 297.011 372.31H294.041V370.47H299.451C299.464 371.47 299.291 372.41 298.931 373.29C298.577 374.17 298.084 374.947 297.451 375.62C296.824 376.287 296.094 376.81 295.261 377.19C294.427 377.57 293.534 377.76 292.581 377.76ZM308.968 367.5H311.048V377.5H308.958L308.878 376.05C308.585 376.563 308.188 376.977 307.688 377.29C307.188 377.603 306.598 377.76 305.918 377.76C305.185 377.76 304.495 377.623 303.848 377.35C303.202 377.07 302.632 376.683 302.138 376.19C301.652 375.697 301.272 375.13 300.998 374.49C300.725 373.843 300.588 373.15 300.588 372.41C300.588 371.697 300.722 371.027 300.988 370.4C301.255 369.767 301.625 369.213 302.098 368.74C302.572 368.267 303.118 367.897 303.738 367.63C304.365 367.357 305.035 367.22 305.748 367.22C306.475 367.22 307.115 367.387 307.668 367.72C308.228 368.047 308.692 368.467 309.058 368.98L308.968 367.5ZM305.868 375.75C306.455 375.75 306.968 375.607 307.408 375.32C307.848 375.027 308.188 374.633 308.428 374.14C308.675 373.647 308.798 373.1 308.798 372.5C308.798 371.893 308.675 371.343 308.428 370.85C308.182 370.357 307.838 369.967 307.398 369.68C306.965 369.387 306.455 369.24 305.868 369.24C305.288 369.24 304.758 369.387 304.278 369.68C303.798 369.973 303.418 370.367 303.138 370.86C302.858 371.353 302.718 371.9 302.718 372.5C302.718 373.107 302.862 373.657 303.148 374.15C303.442 374.637 303.825 375.027 304.298 375.32C304.778 375.607 305.302 375.75 305.868 375.75ZM313.044 377.5V367.5H315.124V368.56C315.47 368.147 315.894 367.82 316.394 367.58C316.9 367.34 317.447 367.22 318.034 367.22C318.747 367.22 319.404 367.393 320.004 367.74C320.604 368.08 321.08 368.533 321.434 369.1C321.787 368.533 322.257 368.08 322.844 367.74C323.437 367.393 324.09 367.22 324.804 367.22C325.544 367.22 326.217 367.4 326.824 367.76C327.43 368.12 327.914 368.603 328.274 369.21C328.634 369.817 328.814 370.49 328.814 371.23V377.5H326.734V371.76C326.734 371.32 326.627 370.917 326.414 370.55C326.2 370.183 325.914 369.887 325.554 369.66C325.194 369.433 324.794 369.32 324.354 369.32C323.914 369.32 323.514 369.427 323.154 369.64C322.794 369.853 322.507 370.143 322.294 370.51C322.08 370.877 321.974 371.293 321.974 371.76V377.5H319.894V371.76C319.894 371.293 319.787 370.877 319.574 370.51C319.36 370.143 319.07 369.853 318.704 369.64C318.344 369.427 317.944 369.32 317.504 369.32C317.07 369.32 316.67 369.433 316.304 369.66C315.944 369.887 315.657 370.183 315.444 370.55C315.23 370.917 315.124 371.32 315.124 371.76V377.5H313.044ZM335.022 377.76C334.102 377.76 333.262 377.523 332.502 377.05C331.749 376.577 331.145 375.943 330.692 375.15C330.245 374.35 330.022 373.467 330.022 372.5C330.022 371.767 330.152 371.083 330.412 370.45C330.672 369.81 331.029 369.25 331.482 368.77C331.942 368.283 332.475 367.903 333.082 367.63C333.689 367.357 334.335 367.22 335.022 367.22C335.789 367.22 336.492 367.38 337.132 367.7C337.772 368.013 338.319 368.45 338.772 369.01C339.225 369.563 339.559 370.203 339.772 370.93C339.985 371.65 340.049 372.417 339.962 373.23H332.252C332.339 373.69 332.505 374.107 332.752 374.48C333.005 374.847 333.325 375.137 333.712 375.35C334.105 375.563 334.542 375.673 335.022 375.68C335.529 375.68 335.989 375.553 336.402 375.3C336.822 375.047 337.165 374.697 337.432 374.25L339.542 374.74C339.142 375.627 338.539 376.353 337.732 376.92C336.925 377.48 336.022 377.76 335.022 377.76ZM332.182 371.64H337.862C337.795 371.16 337.625 370.727 337.352 370.34C337.085 369.947 336.749 369.637 336.342 369.41C335.942 369.177 335.502 369.06 335.022 369.06C334.549 369.06 334.109 369.173 333.702 369.4C333.302 369.627 332.969 369.937 332.702 370.33C332.442 370.717 332.269 371.153 332.182 371.64ZM344.657 377.69C344.13 377.657 343.617 377.55 343.117 377.37C342.617 377.19 342.177 376.947 341.797 376.64C341.424 376.327 341.144 375.96 340.957 375.54L342.727 374.78C342.814 374.96 342.964 375.137 343.177 375.31C343.397 375.483 343.654 375.627 343.947 375.74C344.24 375.847 344.547 375.9 344.867 375.9C345.18 375.9 345.47 375.857 345.737 375.77C346.01 375.677 346.234 375.537 346.407 375.35C346.58 375.163 346.667 374.94 346.667 374.68C346.667 374.387 346.567 374.16 346.367 374C346.174 373.833 345.93 373.707 345.637 373.62C345.344 373.533 345.05 373.45 344.757 373.37C344.104 373.223 343.504 373.023 342.957 372.77C342.417 372.51 341.987 372.18 341.667 371.78C341.347 371.373 341.187 370.877 341.187 370.29C341.187 369.65 341.36 369.097 341.707 368.63C342.054 368.157 342.507 367.793 343.067 367.54C343.634 367.287 344.237 367.16 344.877 367.16C345.677 367.16 346.41 367.33 347.077 367.67C347.744 368.01 348.254 368.477 348.607 369.07L346.957 370.05C346.857 369.85 346.707 369.67 346.507 369.51C346.307 369.35 346.08 369.223 345.827 369.13C345.574 369.03 345.31 368.973 345.037 368.96C344.697 368.947 344.38 368.987 344.087 369.08C343.8 369.167 343.57 369.307 343.397 369.5C343.224 369.693 343.137 369.94 343.137 370.24C343.137 370.533 343.24 370.753 343.447 370.9C343.654 371.04 343.914 371.153 344.227 371.24C344.547 371.327 344.874 371.423 345.207 371.53C345.8 371.717 346.357 371.947 346.877 372.22C347.397 372.487 347.817 372.817 348.137 373.21C348.457 373.603 348.61 374.083 348.597 374.65C348.597 375.277 348.407 375.827 348.027 376.3C347.654 376.773 347.167 377.133 346.567 377.38C345.967 377.627 345.33 377.73 344.657 377.69Z" fill="white"/>
<line x1="242.5" y1="352" x2="242.5" y2="389" stroke="#EEEEEE"/>
<path d="M66.148 379V374.704H58.96V372.196L65.548 362.2H68.644V372.208H70.18V374.704H68.644V379H66.148ZM61.864 372.196L66.148 372.208L66.124 365.644L61.864 372.196ZM78.0732 379.312C77.0572 379.312 76.1332 379.08 75.3012 378.616C74.4692 378.152 73.8052 377.532 73.3092 376.756C72.8212 375.972 72.5772 375.1 72.5772 374.14C72.5772 373.332 72.7772 372.58 73.1772 371.884C73.5772 371.188 74.1092 370.612 74.7732 370.156C74.2372 369.756 73.8012 369.252 73.4652 368.644C73.1292 368.036 72.9612 367.38 72.9612 366.676C72.9612 365.796 73.1892 364.996 73.6452 364.276C74.1092 363.548 74.7292 362.968 75.5052 362.536C76.2812 362.104 77.1372 361.888 78.0732 361.888C79.0092 361.888 79.8652 362.104 80.6412 362.536C81.4172 362.968 82.0332 363.548 82.4892 364.276C82.9532 364.996 83.1852 365.796 83.1852 366.676C83.1852 367.38 83.0172 368.036 82.6812 368.644C82.3532 369.252 81.9172 369.756 81.3732 370.156C82.0532 370.612 82.5892 371.188 82.9812 371.884C83.3812 372.58 83.5812 373.332 83.5812 374.14C83.5812 375.092 83.3332 375.96 82.8372 376.744C82.3412 377.528 81.6772 378.152 80.8452 378.616C80.0132 379.08 79.0892 379.312 78.0732 379.312ZM78.0732 376.816C78.6012 376.816 79.0812 376.696 79.5132 376.456C79.9452 376.216 80.2892 375.896 80.5452 375.496C80.8092 375.088 80.9412 374.636 80.9412 374.14C80.9412 373.652 80.8092 373.208 80.5452 372.808C80.2892 372.4 79.9452 372.076 79.5132 371.836C79.0812 371.596 78.6012 371.476 78.0732 371.476C77.5532 371.476 77.0732 371.596 76.6332 371.836C76.2012 372.076 75.8532 372.4 75.5892 372.808C75.3332 373.208 75.2052 373.652 75.2052 374.14C75.2052 374.636 75.3332 375.088 75.5892 375.496C75.8532 375.896 76.2012 376.216 76.6332 376.456C77.0732 376.696 77.5532 376.816 78.0732 376.816ZM78.0732 368.98C78.5292 368.98 78.9412 368.876 79.3092 368.668C79.6852 368.46 79.9852 368.184 80.2092 367.84C80.4332 367.488 80.5452 367.1 80.5452 366.676C80.5452 366.252 80.4332 365.868 80.2092 365.524C79.9852 365.18 79.6852 364.904 79.3092 364.696C78.9412 364.488 78.5292 364.384 78.0732 364.384C77.6172 364.384 77.2012 364.488 76.8252 364.696C76.4572 364.904 76.1612 365.18 75.9372 365.524C75.7132 365.868 75.6012 366.252 75.6012 366.676C75.6012 367.1 75.7132 367.488 75.9372 367.84C76.1612 368.184 76.4572 368.46 76.8252 368.668C77.2012 368.876 77.6172 368.98 78.0732 368.98ZM91.7673 379.312C90.7753 379.312 89.8793 379.088 89.0793 378.64C88.2873 378.184 87.6033 377.556 87.0273 376.756C86.4513 375.956 86.0113 375.032 85.7073 373.984C85.4033 372.928 85.2513 371.8 85.2513 370.6C85.2513 369.4 85.4033 368.272 85.7073 367.216C86.0113 366.16 86.4513 365.236 87.0273 364.444C87.6033 363.644 88.2873 363.02 89.0793 362.572C89.8793 362.116 90.7753 361.888 91.7673 361.888C92.7433 361.888 93.6313 362.116 94.4313 362.572C95.2313 363.02 95.9113 363.644 96.4713 364.444C97.0393 365.236 97.4753 366.16 97.7793 367.216C98.0833 368.272 98.2353 369.4 98.2353 370.6C98.2353 371.8 98.0833 372.928 97.7793 373.984C97.4753 375.032 97.0393 375.956 96.4713 376.756C95.9113 377.556 95.2313 378.184 94.4313 378.64C93.6313 379.088 92.7433 379.312 91.7673 379.312ZM91.7673 376.816C92.6873 376.816 93.4513 376.528 94.0593 375.952C94.6753 375.368 95.1353 374.604 95.4393 373.66C95.7433 372.716 95.8953 371.696 95.8953 370.6C95.8953 369.448 95.7353 368.404 95.4153 367.468C95.1033 366.524 94.6393 365.776 94.0233 365.224C93.4153 364.664 92.6633 364.384 91.7673 364.384C91.0553 364.384 90.4353 364.552 89.9073 364.888C89.3873 365.224 88.9553 365.684 88.6113 366.268C88.2753 366.852 88.0193 367.516 87.8433 368.26C87.6753 369.004 87.5913 369.784 87.5913 370.6C87.5913 371.696 87.7473 372.716 88.0592 373.66C88.3713 374.604 88.8353 375.368 89.4513 375.952C90.0753 376.528 90.8473 376.816 91.7673 376.816Z" fill="white"/>
<defs>
<filter id="filter0_i_529_10107" x="37" y="24" width="304" height="274.26" filterUnits="userSpaceOnUse" color-interpolation-filters="sRGB">
<feFlood flood-opacity="0" result="BackgroundImageFix"/>
<feBlend mode="normal" in="SourceGraphic" in2="BackgroundImageFix" result="shape"/>
<feColorMatrix in="SourceAlpha" type="matrix" values="0 0 0 0 0 0 0 0 0 0 0 0 0 0 0 0 0 0 127 0" result="hardAlpha"/>
<feOffset dx="-4"/>
<feGaussianBlur stdDeviation="4"/>
<feComposite in2="hardAlpha" operator="arithmetic" k2="-1" k3="1"/>
<feColorMatrix type="matrix" values="0 0 0 0 0 0 0 0 0 0 0 0 0 0 0 0 0 0 0.12 0"/>
<feBlend mode="normal" in2="shape" result="effect1_innerShadow_529_10107"/>
</filter>
</defs>
</svg>
